<svg xmlns="http://www.w3.org/2000/svg" viewBox="0 0 384.02 384"><defs><style>.cls-1{fill:#009549;}.cls-2{fill:none;}.cls-3{fill:#d8b513;}.cls-4{fill:#35342c;}.cls-5{fill:#f9f9fc;}</style></defs><title>logoAppicon</title><g id="Capa_2" data-name="Capa 2"><g id="Capa_1-2" data-name="Capa 1"><path class="cls-1" d="M0,366.75V17.25c1.23-.53,1.09-1.82,1.48-2.78a22.82,22.82,0,0,1,13-13c1-.39,2.25-.25,2.78-1.48h102c4.08,2.18,5.64,5.55,5.31,10.16-.28,3.85-.11,7.74,0,11.61.09,5.18,3,8.2,8.13,8.21q59.42,0,118.81,0c5,0,7.91-3,8-7.92.09-4,.25-8,0-12-.34-4.6,1.31-7.88,5.31-10.06H366c.17.84.9.64,1.46.81,10,3,16.48,11.32,16.51,21.6q.12,46.86,0,93.71c0,5.43-2.93,8.3-8.35,8.37-4.5.06-9,0-13.5,0-5,.08-8.09,3-8.1,7.84Q354,192,354,251.56c0,4.92,3.06,7.82,8,7.92,4,.08,8,0,12,0,7.5,0,9.95,2.41,9.95,9.8v89.59c0,16-9.06,25.11-25,25.11H135.21q-55.86,0-111.71,0c-10.68,0-18.34-5.29-22.24-15.14C1,368.12,1.11,367,0,366.75Zm15-175V359.38c0,7,2.53,9.62,9.38,9.62H359.56c6.88,0,9.43-2.6,9.44-9.56q0-38.43,0-76.86c0-7.92,0-7.92-7.71-8.08-12.33-.27-22.22-9.91-22.25-22.21q-.15-60.36,0-120.72a22.34,22.34,0,0,1,15.74-21.06,28.4,28.4,0,0,1,10.76-1c2.7.21,3.55-.46,3.54-3.38C369,78.93,369,51.68,369,24.44c0-6.89-2.59-9.43-9.56-9.44H281.83c-7.22,0-7.22,0-7.33,7.33-.2,12.77-9.85,22.61-22.59,22.64q-60,.12-120,0A22.49,22.49,0,0,1,110.5,29.21a26.33,26.33,0,0,1-.94-10.39c.29-3.06-.58-3.92-3.78-3.9C78.91,15.06,52,15,25.17,15,17.26,15,15,17.3,15,25.33Z"/><path class="cls-2" d="M15,191.79V25.33C15,17.3,17.26,15,25.17,15c26.87,0,53.74.06,80.61-.08,3.2,0,4.07.84,3.78,3.9a26.33,26.33,0,0,0,.94,10.39A22.49,22.49,0,0,0,131.94,45q60,.09,120,0c12.74,0,22.39-9.87,22.59-22.64.11-7.33.11-7.33,7.33-7.33h77.61c7,0,9.55,2.55,9.56,9.44,0,27.24-.05,54.49.08,81.73,0,2.92-.84,3.59-3.54,3.38a28.4,28.4,0,0,0-10.76,1A22.34,22.34,0,0,0,339,131.57q-.12,60.36,0,120.72c0,12.3,9.92,21.94,22.25,22.21,7.71.16,7.71.16,7.71,8.08q0,38.43,0,76.86c0,7-2.56,9.56-9.44,9.56H24.38c-6.85,0-9.38-2.61-9.38-9.62Zm169.47-74.86c0-9.6.05-19.19,0-28.79,0-5.16-2.9-8.51-7.31-8.62s-7.65,3.33-7.67,8.62c0,9.6,0,19.19,0,28.79H154.47c0-9.6.05-19.19,0-28.79,0-5.16-2.9-8.51-7.31-8.62s-7.65,3.33-7.67,8.62c0,9.6,0,19.19,0,28.79-2.6,0-5.21,0-7.8.09A14.86,14.86,0,0,0,117,131.35c-.14,2.72-.07,5.45-.1,8.17-14.11,0-28.23-.07-42.34,0-2.41,0-3.44-.29-3.41-3.12.16-14.86.12-29.72,0-44.59,0-2.19.64-3.18,2.71-4,12-5,17.88-16.56,15.34-29.57a26.08,26.08,0,0,0-50.92-.54C35.51,70.52,41.27,82.5,53.07,87.58c2.68,1.16,3.27,2.5,3.25,5.2-.14,17.61-.09,35.22-.06,52.83,0,6.13,2.78,8.88,9,8.88q25.86,0,51.71,0v15.05c-9.47,0-18.94,0-28.42,0-5.6,0-8.85,2.69-9,7.3s3.26,7.67,9,7.68c9.48,0,18.95,0,28.42,0v15.06c-9.47,0-18.94,0-28.42,0-5.6,0-8.85,2.69-9,7.3s3.26,7.67,9,7.68c9.48,0,18.95,0,28.42,0v15.06c-9.47,0-18.94,0-28.42,0-5.6,0-8.85,2.69-9,7.3s3.26,7.67,9,7.68c9.48,0,18.95,0,28.42,0,0,2.6,0,5.21.09,7.8A14.87,14.87,0,0,0,131.35,267c2.72.14,5.45.07,8.17.1,0,14.11-.07,28.23,0,42.34,0,2.41-.28,3.44-3.12,3.41-14.86-.16-29.72-.12-44.58,0-2.19,0-3.17-.65-4-2.71-5.16-12.15-16.84-18-29.93-15.29a26.07,26.07,0,0,0,.18,50.92c13,2.63,24.62-3.18,29.67-15.14,1-2.47,2.34-2.89,4.69-2.87,17.73.08,35.46.06,53.2,0,6.13,0,8.88-2.78,8.88-9q0-25.84,0-51.7h15.05c0,9.59-.05,19.19,0,28.78,0,5.17,2.9,8.51,7.3,8.63s7.66-3.34,7.68-8.63c0-9.59,0-19.19,0-28.78h15.06c0,9.59-.05,19.19,0,28.78,0,5.17,2.9,8.51,7.3,8.63s7.66-3.34,7.68-8.63c0-9.59,0-19.19,0-28.78h15.05q0,25.67,0,51.33c0,6.7,2.62,9.34,9.26,9.35,17.61,0,35.22,0,52.83,0,2.34,0,3.65.39,4.69,2.87,5,11.95,16.69,17.77,29.66,15.14a25.77,25.77,0,0,0,20.55-25.57,26.16,26.16,0,0,0-21.1-25.58,25.79,25.79,0,0,0-29.21,15.51c-.87,2-1.82,2.74-4,2.72-14.86-.1-29.72-.14-44.58,0-2.84,0-3.14-1-3.12-3.41.1-14.11,0-28.23,0-42.34,2.6,0,5.2,0,7.79-.09A14.87,14.87,0,0,0,267,252.64c.14-2.71.07-5.44.1-8.17,9.59,0,19.19.06,28.78,0,5.39,0,8.72-3.06,8.6-7.68s-3.33-7.28-8.6-7.3c-9.59,0-19.19,0-28.78,0V214.47c9.59,0,19.19.06,28.78,0,5.39,0,8.72-3.06,8.6-7.68s-3.33-7.28-8.6-7.3c-9.59,0-19.19,0-28.78,0V184.47c9.59,0,19.19.06,28.78,0,5.39,0,8.72-3.06,8.6-7.68s-3.33-7.28-8.6-7.3c-9.59,0-19.19,0-28.78,0V154.47c9.59,0,19.19.06,28.78,0,5.39,0,8.72-3.06,8.6-7.68s-3.33-7.28-8.6-7.3c-9.59,0-19.19,0-28.78,0,0-2.6,0-5.21-.09-7.8A14.85,14.85,0,0,0,252.64,117c-2.71-.14-5.44-.07-8.17-.1,0-9.6.05-19.19,0-28.79,0-5.16-2.9-8.51-7.31-8.62s-7.65,3.33-7.67,8.62c0,9.6,0,19.19,0,28.79H214.47c0-9.6.05-19.19,0-28.79,0-5.16-2.9-8.51-7.31-8.62s-7.65,3.33-7.67,8.62c0,9.6,0,19.19,0,28.79Z"/><path class="cls-3" d="M214.47,116.93h30c2.73,0,5.46,0,8.17.1A14.85,14.85,0,0,1,267,131.73c.09,2.59.07,5.2.09,7.8V244.47c0,2.73,0,5.46-.1,8.17A14.87,14.87,0,0,1,252.27,267c-2.59.09-5.19.07-7.79.09h-105c-2.72,0-5.45,0-8.17-.1A14.87,14.87,0,0,1,117,252.27c-.09-2.59-.07-5.2-.09-7.8V139.52c0-2.72,0-5.45.1-8.17A14.86,14.86,0,0,1,131.73,117c2.59-.09,5.2-.07,7.8-.09h74.94ZM192.21,139.5H148.74c-6.49,0-9.23,2.67-9.23,9q0,43.47,0,87c0,6.35,2.73,9,9.2,9,18.86,0,37.72,0,56.59,0a10.49,10.49,0,0,0,8-3.21q14-14.1,28.09-28.1a10.14,10.14,0,0,0,3.11-7.7c-.07-19,0-38,0-57,0-6.37-2.73-9.05-9.18-9.06Z"/><path class="cls-1" d="M116.93,139.52v15q-25.86,0-51.71,0c-6.18,0-8.95-2.75-9-8.88,0-17.61-.08-35.22.06-52.83,0-2.7-.57-4-3.25-5.2C41.27,82.5,35.51,70.52,38.33,57.69a26.08,26.08,0,0,1,50.92.54c2.54,13-3.38,24.6-15.34,29.57-2.07.86-2.72,1.85-2.71,4,.1,14.87.14,29.73,0,44.59,0,2.83,1,3.14,3.41,3.12C88.7,139.45,102.82,139.52,116.93,139.52ZM75,63.85a11.24,11.24,0,0,0-22.48-.39A11.24,11.24,0,1,0,75,63.85Z"/><path class="cls-1" d="M139.52,267.07h14.95q0,25.86,0,51.7c0,6.19-2.75,9-8.88,9-17.74,0-35.47.05-53.2,0-2.35,0-3.65.4-4.69,2.87-5,12-16.7,17.77-29.67,15.14a26.07,26.07,0,0,1-.18-50.92c13.09-2.75,24.77,3.14,29.93,15.29.88,2.06,1.86,2.72,4,2.71,14.86-.1,29.72-.14,44.58,0,2.84,0,3.14-1,3.12-3.41C139.45,295.3,139.52,281.18,139.52,267.07ZM63.88,331.5A11.39,11.39,0,0,0,75,320.21a11.24,11.24,0,1,0-22.48.26A11.39,11.39,0,0,0,63.88,331.5Z"/><path class="cls-1" d="M229.52,267.07h15c0,14.11.07,28.23,0,42.34,0,2.41.28,3.44,3.12,3.41,14.86-.16,29.72-.12,44.58,0,2.21,0,3.16-.69,4-2.72a25.79,25.79,0,0,1,29.21-15.51,26.16,26.16,0,0,1,21.1,25.58,25.77,25.77,0,0,1-20.55,25.57c-13,2.63-24.65-3.19-29.66-15.14-1-2.48-2.35-2.88-4.69-2.87-17.61.08-35.22.05-52.83,0-6.64,0-9.25-2.65-9.26-9.35Q229.5,292.74,229.52,267.07Zm102,53.16a11.24,11.24,0,1,0-22.48.22,11.24,11.24,0,0,0,22.48-.22Z"/><path class="cls-4" d="M154.47,116.93H139.53c0-9.6-.05-19.19,0-28.79,0-5.29,3.13-8.74,7.67-8.62s7.29,3.46,7.31,8.62C154.52,97.74,154.48,107.33,154.47,116.93Z"/><path class="cls-4" d="M184.47,116.93H169.53c0-9.6-.05-19.19,0-28.79,0-5.29,3.13-8.74,7.67-8.62s7.29,3.46,7.31,8.62C184.52,97.74,184.48,107.33,184.47,116.93Z"/><path class="cls-4" d="M214.47,116.93H199.53c0-9.6-.05-19.19,0-28.79,0-5.29,3.13-8.74,7.67-8.62s7.29,3.46,7.31,8.62C214.52,97.74,214.48,107.33,214.47,116.93Z"/><path class="cls-4" d="M244.47,116.93H229.53c0-9.6-.05-19.19,0-28.79,0-5.29,3.13-8.74,7.67-8.62s7.29,3.46,7.31,8.62C244.52,97.74,244.48,107.33,244.47,116.93Z"/><path class="cls-4" d="M267.07,154.47V139.53c9.59,0,19.19-.05,28.78,0,5.27,0,8.49,2.81,8.6,7.3s-3.21,7.66-8.6,7.68C286.26,154.53,276.66,154.48,267.07,154.47Z"/><path class="cls-4" d="M116.93,169.53v14.94c-9.47,0-18.94.05-28.42,0-5.71,0-9.09-2.94-9-7.68s3.37-7.29,9-7.3C98,169.49,107.46,169.52,116.93,169.53Z"/><path class="cls-4" d="M267.07,184.47V169.53c9.59,0,19.19-.05,28.78,0,5.27,0,8.49,2.81,8.6,7.3s-3.21,7.66-8.6,7.68C286.26,184.53,276.66,184.48,267.07,184.47Z"/><path class="cls-4" d="M116.93,199.53v14.94c-9.47,0-18.94.05-28.42,0-5.71,0-9.09-2.94-9-7.68s3.37-7.29,9-7.3C98,199.49,107.46,199.52,116.93,199.53Z"/><path class="cls-4" d="M267.07,214.47V199.53c9.59,0,19.19-.05,28.78,0,5.27,0,8.49,2.81,8.6,7.3s-3.21,7.66-8.6,7.68C286.26,214.53,276.66,214.48,267.07,214.47Z"/><path class="cls-4" d="M116.93,229.53v14.94c-9.47,0-18.94.05-28.42,0-5.71,0-9.09-2.94-9-7.68s3.37-7.29,9-7.3C98,229.49,107.46,229.52,116.93,229.53Z"/><path class="cls-4" d="M267.07,244.47V229.53c9.59,0,19.19-.05,28.78,0,5.27,0,8.49,2.81,8.6,7.3s-3.21,7.66-8.6,7.68C286.26,244.53,276.66,244.48,267.07,244.47Z"/><path class="cls-4" d="M169.53,267.07h14.94c0,9.59.05,19.19,0,28.78,0,5.29-3.15,8.75-7.68,8.63s-7.29-3.46-7.3-8.63C169.48,286.26,169.52,276.66,169.53,267.07Z"/><path class="cls-4" d="M199.53,267.07h14.94c0,9.59.05,19.19,0,28.78,0,5.29-3.15,8.75-7.68,8.63s-7.29-3.46-7.3-8.63C199.48,286.26,199.52,276.66,199.53,267.07Z"/><path class="cls-4" d="M192.21,139.5h43.1c6.45,0,9.18,2.69,9.18,9.06,0,19,0,38,0,57a10.14,10.14,0,0,1-3.11,7.7q-14.1,14-28.09,28.1a10.49,10.49,0,0,1-8,3.21c-18.87-.08-37.73,0-56.59,0-6.47,0-9.2-2.69-9.2-9q0-43.49,0-87c0-6.34,2.74-9,9.23-9ZM154.5,192c0,11.5.08,23-.06,34.49,0,2.52.76,3.08,3.14,3.06q21.75-.15,43.49,0a6.2,6.2,0,0,0,4.88-2.08Q216.6,216.64,227.42,206a6.21,6.21,0,0,0,2.13-4.86q-.15-21.75,0-43.49c0-2.28-.36-3.22-3-3.2q-34.49.17-69,0c-2.39,0-3.16.56-3.13,3.06C154.58,169,154.5,180.51,154.5,192Z"/><path class="cls-5" d="M75,63.85a11.24,11.24,0,1,1-22.48-.39A11.24,11.24,0,0,1,75,63.85Z"/><path class="cls-5" d="M63.88,331.5a11.39,11.39,0,0,1-11.37-11A11.24,11.24,0,1,1,75,320.21,11.39,11.39,0,0,1,63.88,331.5Z"/><path class="cls-5" d="M331.49,320.23a11.24,11.24,0,0,1-22.48.22,11.24,11.24,0,1,1,22.48-.22Z"/><path class="cls-3" d="M154.5,192c0-11.49.08-23-.06-34.49,0-2.5.74-3.07,3.13-3.06q34.5.13,69,0c2.63,0,3,.92,3,3.2q-.14,21.75,0,43.49a6.21,6.21,0,0,1-2.13,4.86Q216.61,216.65,206,227.47a6.2,6.2,0,0,1-4.88,2.08q-21.75-.13-43.49,0c-2.38,0-3.17-.54-3.14-3.06C154.58,215,154.5,203.5,154.5,192Z"/></g></g></svg>